<svg width="169" height="85" viewBox="0 0 169 85" fill="none" xmlns="http://www.w3.org/2000/svg">
<mask id="path-1-inside-1_436_631" fill="white">
<path d="M0.113334 0.985604C0.113332 23.26 8.96178 44.622 24.7121 60.3724C40.4625 76.1227 61.8245 84.9712 84.0989 84.9712C106.373 84.9712 127.735 76.1227 143.486 60.3724C159.236 44.622 168.084 23.26 168.084 0.985631L84.0989 0.985611L0.113334 0.985604Z"/>
</mask>
<path d="M0.113334 0.985604C0.113332 23.26 8.96178 44.622 24.7121 60.3724C40.4625 76.1227 61.8245 84.9712 84.0989 84.9712C106.373 84.9712 127.735 76.1227 143.486 60.3724C159.236 44.622 168.084 23.26 168.084 0.985631L84.0989 0.985611L0.113334 0.985604Z" fill="#ECECEC" stroke="white" stroke-width="1.59214" mask="url(#path-1-inside-1_436_631)"/>
</svg>
