<svg width="24" height="24" viewBox="0 0 24 24" fill="none" xmlns="http://www.w3.org/2000/svg">
<path d="M5.00012 17.0001H4.00012C3.46969 17.0001 2.96098 16.7894 2.58591 16.4143C2.21084 16.0393 2.00012 15.5306 2.00012 15.0001V5.00012C2.00012 4.46969 2.21084 3.96098 2.58591 3.58591C2.96098 3.21084 3.46969 3.00012 4.00012 3.00012H20.0001C20.5306 3.00012 21.0393 3.21084 21.4143 3.58591C21.7894 3.96098 22.0001 4.46969 22.0001 5.00012V15.0001C22.0001 15.5306 21.7894 16.0393 21.4143 16.4143C21.0393 16.7894 20.5306 17.0001 20.0001 17.0001H19.0001" stroke="white" stroke-width="2" stroke-linecap="round" stroke-linejoin="round"/>
<path d="M12.0001 15.0001L17.0001 21.0001H7.00012L12.0001 15.0001Z" stroke="white" stroke-width="2" stroke-linecap="round" stroke-linejoin="round"/>
</svg>
