<svg width="22" height="21" viewBox="0 0 22 21" fill="none" xmlns="http://www.w3.org/2000/svg">
<g clip-path="url(#clip0_407_162)">
<path d="M8.42859 16.2857C4.14287 17.5714 4.14287 14.1428 2.42859 13.7143M14.4286 18.8571V15.54C14.4607 15.1313 14.4055 14.7204 14.2666 14.3347C14.1277 13.9489 13.9082 13.5972 13.6229 13.3028C16.3143 13.0028 19.1429 11.9828 19.1429 7.30285C19.1427 6.10613 18.6823 4.9553 17.8572 4.08856C18.2479 3.04157 18.2203 1.88429 17.78 0.857133C17.78 0.857133 16.7686 0.557133 14.4286 2.1257C12.464 1.59327 10.3932 1.59327 8.42859 2.1257C6.08859 0.557133 5.07716 0.857133 5.07716 0.857133C4.63691 1.88429 4.60928 3.04157 5.00002 4.08856C4.1687 4.96173 3.70789 6.12296 3.7143 7.32856C3.7143 11.9743 6.54287 12.9943 9.2343 13.3286C8.9523 13.62 8.73481 13.9675 8.596 14.3485C8.45718 14.7295 8.40014 15.1355 8.42859 15.54V18.8571" stroke="white" stroke-width="1.71429" stroke-linecap="round" stroke-linejoin="round"/>
</g>
<defs>
<clipPath id="clip0_407_162">
<rect width="20.5714" height="20.5714" fill="white" transform="translate(0.714294)"/>
</clipPath>
</defs>
</svg>
