<svg width="104" height="27" viewBox="0 0 104 27" fill="none" xmlns="http://www.w3.org/2000/svg">
<g clip-path="url(#clip0_409_343)">
<rect width="104" height="27" fill="white"/>
<path d="M4.76929 23.0298V12.7044H17.7753V12.1004H4.76929V2.68069H18.5976V2.0769H4.16016V23.6336H18.7193V23.0298H4.76929ZM30.4462 8.11512L25.0551 15.1498L19.7855 8.1153H18.9936L24.6895 15.6028L18.4451 23.6334H19.1762L25.0547 16.0553L30.9638 23.6334H31.7252L25.4507 15.6025L31.1769 8.11494L30.4462 8.11512ZM33.5529 28.9473V19.2862H33.6138C33.9794 20.6951 34.7003 21.8273 35.7765 22.6828C36.8527 23.5381 38.2232 23.9659 39.8883 23.9659C40.9645 23.9659 41.919 23.7496 42.7515 23.3168C43.584 22.8841 44.2795 22.2954 44.838 21.5506C45.3963 20.8058 45.8228 19.9404 46.1173 18.9541C46.4116 17.9679 46.5589 16.9313 46.5589 15.8445C46.5589 14.677 46.4065 13.6001 46.1019 12.614C45.7974 11.6277 45.3557 10.7722 44.7771 10.0477C44.1983 9.32305 43.4977 8.75931 42.6753 8.35703C41.853 7.95439 40.9239 7.75307 39.8883 7.75307C39.0964 7.75307 38.3604 7.86886 37.6801 8.10026C36.9999 8.33184 36.3959 8.65874 35.8679 9.0815C35.3368 9.50751 34.8746 10.0115 34.4972 10.5759C34.1114 11.1496 33.8169 11.7786 33.6138 12.463H33.5529V8.11512H32.9438V28.9473H33.5529ZM39.8883 23.392C37.9797 23.392 36.4465 22.743 35.2891 21.4448C34.1317 20.1466 33.5529 18.2796 33.5529 15.8442C33.5529 14.8378 33.6952 13.8817 33.9794 12.976C34.2637 12.0703 34.6749 11.2752 35.2129 10.591C35.7511 9.90654 36.4161 9.3631 37.2079 8.96064C37.9999 8.55799 38.8934 8.35667 39.8883 8.35667C40.9036 8.35667 41.7921 8.55799 42.5535 8.96064C43.3149 9.3631 43.9445 9.91162 44.442 10.606C44.9394 11.3004 45.3151 12.0955 45.569 12.9911C45.8228 13.8868 45.9496 14.8378 45.9496 15.8442C45.9496 16.75 45.833 17.6508 45.5994 18.5464C45.3659 19.4421 45.0054 20.2472 44.518 20.9619C44.0308 21.6762 43.4065 22.2599 42.6449 22.7129C41.8833 23.1657 40.9645 23.392 39.8883 23.392ZM49.9094 23.6336V14.8479C49.9094 14.0026 50.0311 13.1772 50.275 12.3722C50.5185 11.5671 50.8942 10.8575 51.4018 10.2438C51.9095 9.62984 52.5541 9.14674 53.336 8.79447C54.1177 8.4422 55.0467 8.29633 56.123 8.35667V7.75288C55.1888 7.73295 54.3716 7.83334 53.6711 8.05478C52.9704 8.27621 52.3664 8.57811 51.8587 8.96064C51.351 9.34299 50.945 9.79075 50.6404 10.3041C50.3361 10.8167 50.1102 11.3712 49.9702 11.9495H49.9094V8.11512H49.3002V23.6338L49.9094 23.6336ZM56.8844 15.9951H69.9816C70.0224 14.9284 69.9158 13.902 69.6619 12.9157C69.4081 11.9294 69.0019 11.0538 68.4436 10.2891C67.8851 9.52419 67.1643 8.91026 66.2809 8.44727C65.3976 7.98429 64.3468 7.75288 63.1285 7.75288C62.2552 7.75288 61.4024 7.93409 60.5699 8.29651C59.7374 8.65874 59.0063 9.18696 58.3769 9.88135C57.7474 10.5757 57.2398 11.4262 56.854 12.4328C56.4683 13.439 56.2752 14.5862 56.2752 15.8744C56.2752 17.0217 56.4072 18.0935 56.6712 19.0898C56.9352 20.0861 57.3412 20.9517 57.8895 21.6863C58.4379 22.421 59.1436 22.9896 60.0065 23.392C60.8693 23.7947 61.9101 23.9859 63.1285 23.9658C64.9153 23.9658 66.4181 23.4674 67.6363 22.4713C68.8548 21.4749 69.5756 20.071 69.799 18.2595H69.1899C68.9259 19.9705 68.2506 21.2536 67.1643 22.1089C66.0778 22.9644 64.7124 23.392 63.0675 23.392C61.9507 23.392 61.0064 23.2009 60.2348 22.8185C59.4633 22.4362 58.8337 21.9127 58.3463 21.2485C57.8591 20.5842 57.4986 19.8043 57.2652 18.9086C57.0316 18.0131 56.9047 17.0418 56.8844 15.9951ZM69.3725 15.3913H56.8846C56.9453 14.3045 57.1484 13.3283 57.4935 12.4628C57.8388 11.5972 58.2906 10.8575 58.8491 10.2438C59.4074 9.62984 60.0573 9.16196 60.7984 8.83977C61.5395 8.51776 62.3366 8.35667 63.1894 8.35667C64.2047 8.35667 65.098 8.54295 65.8698 8.91533C66.6413 9.28772 67.286 9.79601 67.804 10.44C68.3217 11.084 68.7125 11.8339 68.9765 12.6892C69.2405 13.5447 69.3725 14.4454 69.3725 15.3913ZM82.6222 12.7044H83.2313C83.2313 10.9733 82.7237 9.71537 81.7085 8.93037C80.693 8.14538 79.3122 7.75288 77.566 7.75288C76.5912 7.75288 75.7689 7.87375 75.0987 8.1153C74.4287 8.35667 73.8805 8.66871 73.454 9.05106C73.0276 9.43341 72.7231 9.85617 72.5403 10.3192C72.3575 10.7821 72.266 11.225 72.266 11.6476C72.266 12.4929 72.4183 13.1672 72.7231 13.6704C73.0276 14.1736 73.5048 14.5661 74.1545 14.8479C74.6013 15.049 75.1088 15.2303 75.6775 15.3915C76.2461 15.5524 76.906 15.7235 77.6574 15.9045C78.3274 16.0658 78.9873 16.2267 79.6372 16.3876C80.2869 16.5487 80.8606 16.7651 81.358 17.0367C81.8557 17.3085 82.2617 17.6557 82.5765 18.0785C82.8911 18.5011 83.0485 19.0546 83.0485 19.7389C83.0485 20.4032 82.8913 20.9668 82.5765 21.4296C82.2644 21.8901 81.8536 22.2768 81.3734 22.5619C80.886 22.8537 80.3427 23.065 79.7438 23.1958C79.1447 23.3266 78.561 23.392 77.9925 23.392C76.1446 23.392 74.7282 22.9845 73.7434 22.1694C72.7585 21.3542 72.2662 20.071 72.2662 18.3199H71.6569C71.6569 20.2724 72.19 21.7014 73.256 22.6072C74.3221 23.5129 75.9009 23.9658 77.9925 23.9658C78.6625 23.9658 79.3376 23.8902 80.018 23.7392C80.6981 23.5883 81.3074 23.3419 81.8454 22.9995C82.3789 22.6621 82.827 22.2077 83.1551 21.6713C83.4902 21.1277 83.6578 20.4635 83.6578 19.6785C83.6578 18.9338 83.5105 18.33 83.2161 17.867C82.9216 17.4042 82.5359 17.0217 82.0586 16.7198C81.5814 16.4179 81.0434 16.1814 80.4443 16.0104C79.8419 15.8383 79.2377 15.6722 78.6319 15.512C77.8864 15.3181 77.1402 15.127 76.3932 14.9385C75.7537 14.7774 75.1598 14.5862 74.6115 14.3648C74.0836 14.1434 73.6622 13.8264 73.3474 13.4138C73.0326 13.0012 72.8754 12.4125 72.8754 11.6476C72.8754 11.5068 72.9159 11.2551 72.9971 10.8929C73.0783 10.5304 73.2713 10.1631 73.5759 9.79075C73.8805 9.41855 74.3474 9.08639 74.977 8.79447C75.6064 8.50272 76.4695 8.35667 77.566 8.35667C78.3173 8.35667 79.0025 8.43731 79.6219 8.59822C80.2412 8.75931 80.7743 9.0159 81.2209 9.36817C81.6677 9.72044 82.0129 10.1682 82.2566 10.7117C82.5003 11.2553 82.6222 11.9194 82.6222 12.7044ZM96.7245 12.7044H97.3337C97.3337 10.9733 96.8262 9.71537 95.8108 8.93037C94.7955 8.14538 93.4147 7.75288 91.6683 7.75288C90.6937 7.75288 89.8713 7.87375 89.2012 8.1153C88.5311 8.35667 87.9828 8.66871 87.5565 9.05106C87.13 9.43341 86.8254 9.85617 86.6426 10.3192C86.4598 10.7821 86.3686 11.225 86.3686 11.6476C86.3686 12.4929 86.5209 13.1672 86.8256 13.6704C87.13 14.1736 87.6073 14.5661 88.257 14.8479C88.7038 15.049 89.2113 15.2303 89.7798 15.3915C90.3484 15.5524 91.0083 15.7235 91.7597 15.9045C92.4299 16.0658 93.0899 16.2267 93.7396 16.3876C94.3895 16.5487 94.963 16.7651 95.4606 17.0367C95.958 17.3085 96.3642 17.6557 96.6788 18.0785C96.9936 18.5011 97.151 19.0546 97.151 19.7389C97.151 20.4032 96.9936 20.9668 96.6788 21.4296C96.3668 21.8901 95.956 22.2768 95.4759 22.5619C94.9884 22.8537 94.4452 23.065 93.8462 23.1958C93.2473 23.3266 92.6634 23.392 92.0948 23.392C90.2469 23.392 88.8307 22.9845 87.8459 22.1694C86.8609 21.3542 86.3686 20.071 86.3686 18.3199H85.7594C85.7594 20.2724 86.2923 21.7014 87.3585 22.6072C88.4245 23.5129 90.0033 23.9658 92.0948 23.9658C92.765 23.9658 93.4401 23.8902 94.1204 23.7392C94.8004 23.5883 95.4097 23.3419 95.9479 22.9995C96.4814 22.6621 96.9295 22.2077 97.2576 21.6713C97.5927 21.1277 97.7602 20.4635 97.7602 19.6785C97.7602 18.9338 97.613 18.33 97.3185 17.867C97.0242 17.4042 96.6384 17.0217 96.1611 16.7198C95.684 16.4179 95.1458 16.1814 94.5469 16.0104C93.9444 15.8383 93.3402 15.6722 92.7345 15.512C91.9889 15.3181 91.2427 15.127 90.4957 14.9385C89.8561 14.7774 89.2621 14.5862 88.7139 14.3648C88.1859 14.1434 87.7645 13.8264 87.4499 13.4138C87.1351 13.0012 86.9777 12.4125 86.9777 11.6476C86.9777 11.5068 87.0183 11.2551 87.0996 10.8929C87.1808 10.5304 87.3739 10.1631 87.6782 9.79075C87.9828 9.41855 88.4499 9.08639 89.0793 8.79447C89.7089 8.50272 90.5718 8.35667 91.6685 8.35667C92.4198 8.35667 93.105 8.43731 93.7244 8.59822C94.3438 8.75931 94.8767 9.0159 95.3235 9.36817C95.7702 9.72044 96.1154 10.1682 96.3591 10.7117C96.6028 11.2553 96.7245 11.9194 96.7245 12.7044Z" fill="black"/>
</g>
<defs>
<clipPath id="clip0_409_343">
<rect width="104" height="27" fill="white"/>
</clipPath>
</defs>
</svg>
