<svg width="43" height="55" viewBox="0 0 43 55" fill="none" xmlns="http://www.w3.org/2000/svg">
<path d="M37.4073 18.8387C39.5495 17.673 41.2009 15.9263 42.1117 13.863C43.0224 11.7996 43.1429 9.53191 42.4549 7.40306C41.7668 5.27422 40.3077 3.40011 38.2984 2.06437C36.2891 0.72862 33.8389 0.00393926 31.3186 0H11.603C9.08274 0.00393926 6.63254 0.72862 4.62321 2.06437C2.61388 3.40011 1.15479 5.27422 0.466748 7.40306C-0.22129 9.53191 -0.100821 11.7996 0.809923 13.863C1.72067 15.9263 3.37211 17.673 5.51433 18.8387C3.82929 19.7474 2.43765 21.0201 1.47227 22.5355C0.506887 24.0508 0 25.7581 0 27.4944C0 29.2307 0.506887 30.938 1.47227 32.4533C2.43765 33.9686 3.82929 35.2414 5.51433 36.15C3.7934 37.0821 2.37992 38.3931 1.4141 39.9529C0.448275 41.5127 -0.0363159 43.2671 0.00839357 45.0421C0.053103 46.817 0.625559 48.5509 1.66897 50.0717C2.71239 51.5925 4.1905 52.8473 5.95669 53.7116C7.72287 54.576 9.71574 55.0199 11.7376 54.9993C13.7595 54.9787 15.7401 54.4943 17.4829 53.5942C19.2258 52.694 20.6703 51.4094 21.6733 49.8678C22.6762 48.3262 23.2026 46.5811 23.2004 44.8057V34.7499C24.3605 35.7688 25.7535 36.56 27.2876 37.0712C28.8217 37.5824 30.4619 37.802 32.0998 37.7153C33.7376 37.6287 35.3359 37.2379 36.7891 36.5688C38.2422 35.8996 39.5171 34.9673 40.5294 33.8335C41.5418 32.6997 42.2687 31.3901 42.6619 29.9914C43.0552 28.5926 43.106 27.1365 42.8109 25.7193C42.5158 24.302 41.8816 22.9559 40.9501 21.7698C40.0186 20.5837 38.8111 19.5847 37.4073 18.8387ZM39.4368 10.1831C39.4292 12.0716 38.5714 13.8807 37.0506 15.2161C35.5298 16.5514 33.4694 17.3046 31.3186 17.3113H23.2004V3.05493H31.3186C33.4694 3.06164 35.5298 3.8148 37.0506 5.15014C38.5714 6.48548 39.4292 8.29466 39.4368 10.1831ZM3.48478 10.1831C3.49242 8.29466 4.35018 6.48548 5.87099 5.15014C7.39179 3.8148 9.45225 3.06164 11.603 3.05493H19.7212V17.3113H11.603C9.45225 17.3046 7.39179 16.5514 5.87099 15.2161C4.35018 13.8807 3.49242 12.0716 3.48478 10.1831ZM3.48478 27.4944C3.49242 25.6059 4.35018 23.7968 5.87099 22.4614C7.39179 21.1261 9.45225 20.3729 11.603 20.3662H19.7212V34.6226H11.603C9.45225 34.6159 7.39179 33.8627 5.87099 32.5274C4.35018 31.192 3.49242 29.3828 3.48478 27.4944ZM11.603 51.9338C9.4499 51.9338 7.38501 51.1828 5.86255 49.8461C4.34009 48.5093 3.48478 46.6962 3.48478 44.8057C3.48478 42.9152 4.34009 41.1021 5.86255 39.7653C7.38501 38.4285 9.4499 37.6775 11.603 37.6775H19.7212V44.8057C19.7135 46.6941 18.8558 48.5033 17.335 49.8386C15.8142 51.174 13.7537 51.9271 11.603 51.9338ZM31.3186 34.6226C29.1655 34.6226 27.1006 33.8716 25.5782 32.5348C24.0557 31.198 23.2004 29.3849 23.2004 27.4944C23.2004 25.6039 24.0557 23.7908 25.5782 22.454C27.1006 21.1172 29.1655 20.3662 31.3186 20.3662C33.4717 20.3662 35.5366 21.1172 37.0591 22.454C38.5815 23.7908 39.4368 25.6039 39.4368 27.4944C39.4368 29.3849 38.5815 31.198 37.0591 32.5348C35.5366 33.8716 33.4717 34.6226 31.3186 34.6226Z" fill="#EBEBEB"/>
</svg>
