<svg width="70" height="70" viewBox="0 0 70 70" fill="none" xmlns="http://www.w3.org/2000/svg">
<path d="M7.58311 30.8875L24.4414 14L29.3706 18.9584C28.6706 21.4375 29.8081 24.15 32.0831 25.4625V41.6208C30.3331 42.6125 29.1664 44.5083 29.1664 46.6667C29.1664 48.2138 29.781 49.6975 30.875 50.7915C31.9689 51.8854 33.4527 52.5 34.9998 52.5C36.5469 52.5 38.0306 51.8854 39.1246 50.7915C40.2185 49.6975 40.8331 48.2138 40.8331 46.6667C40.8331 44.5083 39.6664 42.6125 37.9164 41.6208V27.4458L43.9539 33.5417C43.7498 33.9792 43.7498 34.475 43.7498 35C43.7498 36.5471 44.3644 38.0308 45.4583 39.1248C46.5523 40.2188 48.036 40.8333 49.5831 40.8333C51.1302 40.8333 52.6139 40.2188 53.7079 39.1248C54.8019 38.0308 55.4164 36.5471 55.4164 35C55.4164 33.4529 54.8019 31.9692 53.7079 30.8752C52.6139 29.7813 51.1302 29.1667 49.5831 29.1667C49.0581 29.1667 48.5623 29.1667 48.1248 29.3708L40.6289 21.875C40.9911 20.5241 40.8507 19.0877 40.2338 17.8325C39.6169 16.5773 38.5655 15.5886 37.2748 15.05C36.0206 14.5833 34.7081 14.4667 33.5414 14.7875L28.5831 9.85835L30.8873 7.58335C33.1623 5.27918 36.8373 5.27918 39.1123 7.58335L62.4164 30.8875C64.7206 33.1625 64.7206 36.8375 62.4164 39.1125L39.1123 62.4167C36.8373 64.7208 33.1623 64.7208 30.8873 62.4167L7.58311 39.1125C5.27894 36.8375 5.27894 33.1625 7.58311 30.8875Z" fill="white"/>
</svg>
