<svg width="70" height="70" viewBox="0 0 70 70" fill="none" xmlns="http://www.w3.org/2000/svg">
<path d="M39.4537 0.288753C20.2854 -2.17 2.74749 11.375 0.288743 30.5462C-2.17001 49.7146 11.3721 67.2496 30.5433 69.7113C49.7146 72.17 67.2554 58.625 69.7083 39.4538C72.17 20.2854 58.6279 2.75042 39.4537 0.288753ZM46.6608 22.12C46.0113 22.1285 45.3908 22.3901 44.9312 22.8492L31.9433 35.8371L31.0479 34.9417L29.1725 33.0662C41.9737 20.3029 44.2808 20.1804 46.6608 22.12ZM32.4771 36.2979L45.4271 23.3479C45.5968 23.1699 45.8011 23.0284 46.0274 22.932C46.2537 22.8357 46.4973 22.7865 46.7432 22.7875C46.9892 22.7885 47.2324 22.8397 47.4579 22.9379C47.6834 23.0361 47.8865 23.1793 48.0548 23.3587C48.223 23.5381 48.3529 23.7499 48.4365 23.9812C48.5201 24.2126 48.5556 24.4585 48.5409 24.704C48.5262 24.9496 48.4615 25.1895 48.3509 25.4092C48.2403 25.6289 48.086 25.8237 47.8975 25.9817L34.1921 38.0129L32.4771 36.2979ZM33.4396 38.3221L30.2312 39.0163C30.1929 39.0249 30.1528 39.0204 30.1174 39.0034C30.0819 38.9865 30.0532 38.9581 30.0358 38.9229C30.0163 38.8892 30.0086 38.85 30.0139 38.8115C30.0192 38.7729 30.0371 38.7372 30.065 38.71L31.9462 36.8288L33.4396 38.3221ZM25.2642 36.9833L28.6825 33.565L31.2462 36.1258L25.4742 37.3683C25.4261 37.3808 25.3751 37.3763 25.33 37.3556C25.2848 37.3349 25.2482 37.2992 25.2262 37.2546C25.1991 37.2123 25.1879 37.1617 25.1949 37.1119C25.2019 37.0622 25.2264 37.0165 25.2642 36.9833ZM14.63 54.6525C14.6008 54.6499 14.5725 54.6416 14.5465 54.6281C14.5206 54.6145 14.4976 54.5959 14.4789 54.5734C14.4602 54.5509 14.4462 54.5249 14.4375 54.4969C14.4289 54.4689 14.4259 54.4396 14.4287 54.4104C14.4343 54.3597 14.4569 54.3124 14.4929 54.2762H14.4987L17.2579 51.5171L20.8221 55.0813L14.63 54.6525ZM21.7029 50.9892C21.5707 51.0575 21.4652 51.1682 21.4033 51.3036C21.3414 51.4389 21.3268 51.5911 21.3617 51.7358L21.9537 54.2588C21.9729 54.3365 21.9659 54.4184 21.9338 54.4917C21.9018 54.5651 21.8465 54.6259 21.7765 54.6647C21.7065 54.7035 21.6257 54.7182 21.5465 54.7065C21.4673 54.6948 21.3941 54.6574 21.3383 54.6H21.3296L18.6054 51.8758L17.7479 51.0154L28.7204 40.0546L34.0287 38.9083L36.5779 41.4575C32.9175 44.6717 27.9125 47.8771 21.7029 50.9892ZM37.1 40.9908H37.0942L34.6471 38.5438L48.3525 26.5125C48.4792 26.3999 48.5954 26.2759 48.6996 26.1421C48.2679 30.065 42.7817 35.6067 37.1 40.9908ZM47.7662 22.1492L47.7575 22.1433C46.7932 21.1744 46.2393 19.8712 46.2111 18.5044C46.1828 17.1377 46.6823 15.8127 47.6058 14.8047C48.5292 13.7968 49.8056 13.1835 51.1695 13.0923C52.5335 13.0011 53.8801 13.439 54.9296 14.315L50.2337 19.0196C50.2012 19.0519 50.1754 19.0902 50.1577 19.1325C50.1401 19.1748 50.131 19.2202 50.131 19.266C50.131 19.3119 50.1401 19.3572 50.1577 19.3995C50.1754 19.4418 50.2012 19.4802 50.2337 19.5125L53.8708 23.1496C52.8767 23.6431 51.7527 23.812 50.6574 23.6325C49.5621 23.453 48.5509 22.9342 47.7662 22.1492ZM55.2854 22.1492C55.0442 22.3874 54.7793 22.6004 54.495 22.785H54.4921L50.9717 19.2646L55.4429 14.7933C57.3708 16.8933 57.3008 20.1367 55.2854 22.1492ZM54.9937 17.6458C54.9236 17.6967 54.8711 17.7681 54.8434 17.8501C54.8157 17.9322 54.8142 18.0208 54.8392 18.1038C54.943 18.3141 54.9837 18.55 54.9562 18.7829C54.9288 19.0158 54.8344 19.2358 54.6846 19.4163C54.6512 19.4583 54.6264 19.5066 54.6117 19.5583C54.597 19.61 54.5926 19.6641 54.5988 19.7175C54.6051 19.7709 54.6218 19.8225 54.648 19.8694C54.6742 19.9163 54.7094 19.9576 54.7517 19.9908C54.8217 20.0457 54.9077 20.0764 54.9967 20.0783C55.0557 20.0778 55.1139 20.0645 55.1672 20.0393C55.2206 20.0142 55.2679 19.9777 55.3058 19.9325C55.5564 19.6315 55.7138 19.2641 55.7588 18.8751C55.8039 18.4861 55.7347 18.0924 55.5596 17.7421C55.529 17.6983 55.4901 17.6609 55.445 17.6323C55.3999 17.6037 55.3495 17.5843 55.2968 17.5754C55.2442 17.5664 55.1902 17.568 55.1382 17.5801C55.0862 17.5922 55.0371 17.6146 54.9937 17.6458Z" fill="white"/>
</svg>
