<svg width="70" height="70" viewBox="0 0 70 70" fill="none" xmlns="http://www.w3.org/2000/svg">
<path d="M35.0002 29.4875C38.0043 29.4875 40.4543 31.9375 40.4543 35C40.4543 37.9167 38.0043 40.3958 35.0002 40.3958C31.996 40.3958 29.546 37.9167 29.546 35C29.546 31.9375 31.996 29.4875 35.0002 29.4875ZM21.496 58.3333C23.3335 59.4417 27.3585 57.75 31.996 53.375C30.4793 51.6542 28.9918 49.7875 27.5918 47.8333C25.2414 47.6084 22.9048 47.2579 20.5918 46.7833C19.1043 53.025 19.6585 57.3125 21.496 58.3333ZM23.5668 41.5917L22.721 40.1042C22.4002 40.95 22.0793 41.7958 21.8752 42.6125C22.6627 42.7875 23.5377 42.9333 24.4418 43.0792L23.5668 41.5917ZM42.6418 39.375L45.0043 35L42.6418 30.625C41.7668 29.0792 40.8335 27.7083 39.9877 26.3375C38.4127 26.25 36.7502 26.25 35.0002 26.25C33.2502 26.25 31.5877 26.25 30.0127 26.3375C29.1668 27.7083 28.2335 29.0792 27.3585 30.625L24.996 35L27.3585 39.375C28.2335 40.9208 29.1668 42.2917 30.0127 43.6625C31.5877 43.75 33.2502 43.75 35.0002 43.75C36.7502 43.75 38.4127 43.75 39.9877 43.6625C40.8335 42.2917 41.7668 40.9208 42.6418 39.375ZM35.0002 19.775C34.446 20.4167 33.8627 21.0875 33.2793 21.875H36.721C36.1377 21.0875 35.5543 20.4167 35.0002 19.775ZM35.0002 50.225C35.5543 49.5833 36.1377 48.9125 36.721 48.125H33.2793C33.8627 48.9125 34.446 49.5833 35.0002 50.225ZM48.4752 11.6667C46.6668 10.5583 42.6418 12.25 38.0043 16.625C39.521 18.3458 41.0085 20.2125 42.4085 22.1667C44.8002 22.4 47.1627 22.75 49.4085 23.2167C50.896 16.975 50.3418 12.6875 48.4752 11.6667ZM46.4335 28.4083L47.2793 29.8958C47.6002 29.05 47.921 28.2042 48.1252 27.3875C47.3377 27.2125 46.4627 27.0667 45.5585 26.9208L46.4335 28.4083ZM50.6627 7.84583C54.9502 10.2958 55.4168 16.7417 53.6085 24.2667C61.0168 26.4542 66.3543 30.0708 66.3543 35C66.3543 39.9292 61.0168 43.5458 53.6085 45.7333C55.4168 53.2583 54.9502 59.7042 50.6627 62.1542C46.4043 64.6042 40.6002 61.8042 35.0002 56.4667C29.4002 61.8042 23.596 64.6042 19.3085 62.1542C15.0502 59.7042 14.5835 53.2583 16.3918 45.7333C8.9835 43.5458 3.646 39.9292 3.646 35C3.646 30.0708 8.9835 26.4542 16.3918 24.2667C14.5835 16.7417 15.0502 10.2958 19.3085 7.84583C23.596 5.39583 29.4002 8.19583 35.0002 13.5333C40.6002 8.19583 46.4043 5.39583 50.6627 7.84583ZM49.8168 35C50.8085 37.1875 51.6835 39.375 52.4127 41.5917C58.5377 39.7542 61.9793 37.1292 61.9793 35C61.9793 32.8708 58.5377 30.2458 52.4127 28.4083C51.6835 30.625 50.8085 32.8125 49.8168 35ZM20.1835 35C19.1918 32.8125 18.3168 30.625 17.5877 28.4083C11.4627 30.2458 8.021 32.8708 8.021 35C8.021 37.1292 11.4627 39.7542 17.5877 41.5917C18.3168 39.375 19.1918 37.1875 20.1835 35ZM46.4335 41.5917L45.5585 43.0792C46.4627 42.9333 47.3377 42.7875 48.1252 42.6125C47.921 41.7958 47.6002 40.95 47.2793 40.1042L46.4335 41.5917ZM38.0043 53.375C42.6418 57.75 46.6668 59.4417 48.4752 58.3333C50.3418 57.3125 50.896 53.025 49.4085 46.7833C47.1627 47.25 44.8002 47.6 42.4085 47.8333C41.0085 49.7875 39.521 51.6542 38.0043 53.375ZM23.5668 28.4083L24.4418 26.9208C23.5377 27.0667 22.6627 27.2125 21.8752 27.3875C22.0793 28.2042 22.4002 29.05 22.721 29.8958L23.5668 28.4083ZM31.996 16.625C27.3585 12.25 23.3335 10.5583 21.496 11.6667C19.6585 12.6875 19.1043 16.975 20.5918 23.2167C22.9048 22.7421 25.2414 22.3916 27.5918 22.1667C28.9918 20.2125 30.4793 18.3458 31.996 16.625Z" fill="white"/>
</svg>
