<svg width="53" height="53" viewBox="0 0 53 53" fill="none" xmlns="http://www.w3.org/2000/svg">
<g clip-path="url(#clip0_497_138)">
<path d="M0 26.25V52.5H52.5V0H0V26.25ZM42.3052 24.1566C43.5637 24.4529 44.7076 25.1124 45.5946 26.0531C46.0737 26.565 46.7906 27.5051 46.8513 27.7364C46.8677 27.8053 44.5873 29.3344 43.2026 30.1891C43.1517 30.2236 42.9466 30.0103 42.7235 29.6756C42.0492 28.6929 41.3388 28.2663 40.2544 28.1892C38.6646 28.0859 37.6392 28.916 37.6474 30.3089C37.6391 30.6497 37.7152 30.9873 37.8689 31.2916C38.22 32.0184 38.8779 32.4532 40.9106 33.3342C44.6709 34.9486 46.2771 36.0166 47.2762 37.5293C48.3952 39.2208 48.6429 41.9213 47.8915 43.9376C47.0548 46.1163 44.9859 47.6027 42.0804 48.09C41.183 48.2524 39.0469 48.2262 38.0805 48.0473C35.9707 47.6716 33.9708 46.6282 32.7403 45.2616C32.253 44.7316 31.313 43.3387 31.3737 43.2452C31.3999 43.2108 31.6132 43.0746 31.8527 42.9368L33.8018 41.808L35.3145 40.9287L35.6311 41.3979C36.0757 42.0722 37.0404 42.9959 37.6228 43.3027C39.2979 44.1919 41.5964 44.0639 42.7334 43.0467C43.1944 42.6628 43.452 42.0722 43.4175 41.475C43.4175 40.868 43.3404 40.5956 43.0238 40.1412C42.6136 39.5604 41.7851 39.0649 39.4177 38.0395C36.709 36.8681 35.5376 36.1512 34.4794 34.9978C33.8132 34.2387 33.3205 33.3434 33.0356 32.3745C32.8387 31.6312 32.7879 29.7675 32.9421 29.0243C33.4983 26.4009 35.4802 24.5815 38.325 24.0434C39.2487 23.8645 41.4012 23.9318 42.3068 24.1549L42.3052 24.1566ZM29.9841 26.3534L30.0005 28.4977H23.164V47.921H18.3274V28.4977H11.5008V26.396C11.5008 25.2246 11.527 24.2517 11.5598 24.2255C11.5861 24.191 15.7385 24.1746 20.7802 24.1828L29.9578 24.2091L29.9841 26.3534Z" fill="white"/>
</g>
<defs>
<clipPath id="clip0_497_138">
<rect width="52.5" height="52.5" fill="white"/>
</clipPath>
</defs>
</svg>
