<svg width="53" height="53" viewBox="0 0 53 53" fill="none" xmlns="http://www.w3.org/2000/svg">
<path d="M30.0561 9.2531C28.2186 7.0656 26.6218 4.8781 26.3155 4.39685H26.2499C25.9436 4.85623 24.3468 7.0656 22.5093 9.2531C6.75928 29.3562 25.003 42.9187 25.003 42.9187L25.1561 43.0281C25.2874 45.1062 25.6374 48.125 25.6374 48.125H26.9936C26.9936 48.125 27.3218 45.1281 27.453 43.0281L27.6061 42.8969C27.6061 42.8969 45.8061 29.3562 30.0561 9.2531V9.2531ZM26.2499 42.6125C25.8665 42.2975 25.5148 41.9459 25.1999 41.5625L26.2499 19.6875L27.2343 41.5625C26.9392 41.942 26.6096 42.2935 26.2499 42.6125V42.6125Z" fill="white"/>
</svg>
