<svg width="70" height="70" viewBox="0 0 70 70" fill="none" xmlns="http://www.w3.org/2000/svg">
<path d="M35 5.39581C34.2125 5.39581 33.3958 5.59998 32.725 5.97915L11.025 18.5208C9.625 19.3375 8.75 20.8541 8.75 22.4875V47.5125C8.75 49.1458 9.625 50.6625 11.025 51.4791L16.7125 54.7458C19.4833 56.0875 20.4167 56.1166 21.7 56.1166C25.7833 56.1166 28.1458 53.6375 28.1458 49.3208V24.6166C28.1458 24.2666 27.8542 23.975 27.5042 23.975H24.7917C24.4125 23.975 24.1208 24.2666 24.1208 24.6166V49.3208C24.1208 51.2458 22.1375 53.1416 18.9583 51.5375L12.9792 48.125C12.881 48.0556 12.8007 47.9639 12.7449 47.8574C12.6891 47.7509 12.6594 47.6327 12.6583 47.5125V22.4875C12.6583 22.225 12.775 21.9916 12.9792 21.875L34.6792 9.36248C34.8542 9.24581 35.1458 9.24581 35.3208 9.36248L57.0208 21.875C57.225 21.9916 57.3417 22.225 57.3417 22.4875V47.5125C57.3417 47.7458 57.225 47.9791 57.0208 48.125L35.3208 60.6375C35.1458 60.7541 34.8542 60.7541 34.65 60.6375L29.1667 57.3125C28.9333 57.225 28.7 57.1958 28.5542 57.2833C27.0083 58.1583 26.7167 58.3333 25.2875 58.7708C24.9375 58.8875 24.3833 59.0916 25.4917 59.7041L32.725 63.9916C33.425 64.4 34.1833 64.6041 35 64.6041C35.8167 64.6041 36.575 64.4 37.275 63.9916L58.975 51.4791C60.375 50.6625 61.25 49.1458 61.25 47.5125V22.4875C61.25 20.8541 60.375 19.3375 58.975 18.5208L37.275 5.97915C36.6042 5.59998 35.8167 5.39581 35 5.39581V5.39581ZM40.8333 23.3333C34.65 23.3333 30.9458 25.9291 30.9458 30.3041C30.9458 35 34.6208 36.3708 40.5708 36.9541C47.6583 37.6541 48.2125 38.7041 48.2125 40.1041C48.2125 42.525 46.2583 43.5458 41.7083 43.5458C35.9333 43.5458 34.7083 42.1166 34.2708 39.2583C34.2401 39.1106 34.1597 38.9779 34.0429 38.8823C33.9261 38.7868 33.7801 38.7342 33.6292 38.7333H30.8292C30.4792 38.7333 30.2167 38.9958 30.2167 39.375C30.2167 42.9916 32.2 47.3666 41.7083 47.3666C48.5625 47.3666 52.5 44.6541 52.5 39.9291C52.5 35.2333 49.35 34.0083 42.6708 33.1041C35.9333 32.2291 35.2625 31.7625 35.2625 30.1875C35.2625 28.875 35.8458 27.125 40.8333 27.125C45.2083 27.125 46.9292 28.0875 47.6 31.0916C47.6583 31.3833 47.9208 31.5875 48.2125 31.5875H51.0417C51.1875 31.5875 51.3625 31.5291 51.4792 31.3833C51.5958 31.2666 51.6833 31.0916 51.625 30.9166C51.2167 25.725 47.775 23.3333 40.8333 23.3333Z" fill="white"/>
</svg>
