<svg width="9" height="9" viewBox="0 0 9 9" fill="none" xmlns="http://www.w3.org/2000/svg">
<path d="M8.11362 6.96783V5.96875C8.11798 5.80543 8.05771 5.64631 7.94427 5.52167C7.83084 5.39702 7.67216 5.31554 7.49841 5.29271C7.15501 5.25055 6.81784 5.17234 6.49332 5.0596C6.3653 5.01479 6.22617 5.00509 6.0924 5.03165C5.95864 5.05821 5.83586 5.11992 5.73861 5.20946L5.28436 5.6324C4.38889 5.15832 3.64745 4.46799 3.13827 3.63425L3.59252 3.21131C3.68869 3.12077 3.75496 3.00645 3.78349 2.88191C3.81202 2.75737 3.8016 2.62783 3.75348 2.50863C3.63239 2.20649 3.54839 1.89256 3.5031 1.57283C3.47881 1.4128 3.39284 1.26645 3.26122 1.16106C3.12961 1.05567 2.96132 0.998442 2.78774 1.00003H1.71469C1.61538 1.00012 1.51717 1.01946 1.42632 1.05682C1.33548 1.09418 1.25398 1.14875 1.18703 1.21704C1.12007 1.28533 1.06912 1.36586 1.03742 1.45349C1.00572 1.54112 0.993965 1.63393 1.0029 1.72602C1.12031 2.7554 1.4965 3.74455 2.10099 4.61334C2.65015 5.41799 3.38286 6.10019 4.24708 6.61149C5.17598 7.17235 6.23323 7.52252 7.33388 7.63387C7.43309 7.64222 7.53308 7.63119 7.62744 7.60147C7.72181 7.57176 7.80847 7.52402 7.88187 7.46132C7.95528 7.39862 8.01381 7.32234 8.05372 7.23736C8.09362 7.15238 8.11403 7.06057 8.11362 6.96783Z" stroke="#EEEEEE" stroke-width="1.1706" stroke-linecap="round" stroke-linejoin="round"/>
</svg>
