<svg width="70" height="70" viewBox="0 0 70 70" fill="none" xmlns="http://www.w3.org/2000/svg">
<path d="M35.0002 5.83331C38.8304 5.83331 42.6231 6.58773 46.1618 8.05349C49.7004 9.51926 52.9157 11.6677 55.6241 14.376C58.3325 17.0844 60.4809 20.2997 61.9467 23.8384C63.4124 27.377 64.1668 31.1698 64.1668 35C64.1668 42.7355 61.0939 50.1541 55.6241 55.6239C50.1543 61.0937 42.7356 64.1667 35.0002 64.1667C31.1699 64.1667 27.3772 63.4122 23.8386 61.9465C20.2999 60.4807 17.0846 58.3323 14.3762 55.6239C8.9064 50.1541 5.8335 42.7355 5.8335 35C5.8335 27.2645 8.9064 19.8458 14.3762 14.376C19.846 8.90622 27.2647 5.83331 35.0002 5.83331ZM29.1668 44.7125C29.6335 46.2875 29.5752 47.7458 29.1668 49.0875C29.1668 49.2333 29.0502 49.3792 28.9918 49.5833C28.9335 49.5833 28.8752 49.7875 28.7877 49.9333C28.4668 50.6333 28.0002 51.3042 27.446 51.8875C25.7543 53.7542 23.3335 54.4542 22.371 53.8708C21.2627 53.2291 21.8752 50.6041 23.8002 48.5333C25.9002 46.3167 28.9335 44.8583 28.9335 44.8583L29.1668 44.7125ZM53.2877 18.3166C51.9752 13.125 43.371 11.4333 35.2627 14.3208C30.421 16.0416 25.171 18.725 21.4085 22.2541C16.946 26.4541 16.2168 30.1 16.5085 31.6166C17.5002 36.9833 24.9085 40.5125 27.9418 43.1083V43.1375C27.0668 43.575 20.5335 46.8708 18.9585 50.2542C17.3835 53.8125 19.2502 56.3792 20.4168 56.7292C24.3252 57.7792 28.2627 55.8833 30.3627 52.7042C32.4043 49.6708 32.2585 45.7333 31.3543 43.75C32.5793 43.4583 34.0085 43.3125 35.8168 43.5167C40.9502 44.1292 41.9418 47.3083 41.7377 48.65C41.5627 49.9917 40.4835 50.7208 40.1335 50.9541C39.7835 51.1583 39.6668 51.2458 39.696 51.4208C39.7252 51.6541 39.9002 51.6542 40.1918 51.5958C40.6293 51.5083 42.9043 50.5167 42.9918 48.0375C43.1085 44.8875 40.1043 41.3875 34.796 41.475C32.6085 41.5333 31.2377 41.7375 30.246 42.1166L30.0127 41.8542C26.7168 38.3542 20.6502 35.875 20.9127 31.15C21.0002 29.4291 21.5835 24.9375 32.5793 19.4541C41.5627 14.9625 48.7668 16.1875 50.021 18.9583C51.8002 22.8375 46.171 30.1 36.8377 31.15C33.2793 31.5583 31.3835 30.1583 30.9168 29.6625C30.421 29.1666 30.3627 29.0791 30.1877 29.1666C29.8668 29.3708 30.071 29.8375 30.1877 30.1291C30.4502 30.8583 31.6168 32.0833 33.5418 32.7833C35.2627 33.3375 39.4627 33.6583 44.5085 31.7041C50.1668 29.5166 54.6002 23.4208 53.2877 18.3166Z" fill="white"/>
</svg>
